<svg width="229" height="24" viewBox="0 0 229 24" fill="none" xmlns="http://www.w3.org/2000/svg">
<path d="M7.35 5.625C10.575 5.625 12.85 7.475 12.85 11.375V19H10.45V11.65C10.45 9.05 9.15 7.775 6.875 7.775C4.325 7.775 2.675 9.3 2.675 12.175V19H0.275V5.75H2.575V7.75C3.55 6.4 5.25 5.625 7.35 5.625ZM27.4648 5.75H29.8648V19H27.5648V16.9C26.4898 18.4 24.7898 19.15 22.8398 19.15C18.9648 19.15 16.1398 16.425 16.1398 12.375C16.1398 8.325 18.9648 5.625 22.8398 5.625C24.7148 5.625 26.3648 6.325 27.4648 7.75V5.75ZM23.0398 17.05C25.5648 17.05 27.4898 15.2 27.4898 12.375C27.4898 9.55 25.5648 7.725 23.0398 7.725C20.4898 7.725 18.5648 9.55 18.5648 12.375C18.5648 15.2 20.4898 17.05 23.0398 17.05ZM44.5309 19L39.5559 12.825L36.8059 15.375V19H34.4059V0.449999H36.8059V12.35L44.0309 5.75H46.9309L41.3559 11.225L47.4809 19H44.5309ZM59.3496 5.75H61.7496V19H59.4496V16.9C58.3746 18.4 56.6746 19.15 54.7246 19.15C50.8496 19.15 48.0246 16.425 48.0246 12.375C48.0246 8.325 50.8496 5.625 54.7246 5.625C56.5996 5.625 58.2496 6.325 59.3496 7.75V5.75ZM54.9246 17.05C57.4496 17.05 59.3746 15.2 59.3746 12.375C59.3746 9.55 57.4496 7.725 54.9246 7.725C52.3746 7.725 50.4496 9.55 50.4496 12.375C50.4496 15.2 52.3746 17.05 54.9246 17.05ZM72.5156 16.5L73.2656 18.225C72.5406 18.85 71.4406 19.15 70.3656 19.15C67.6906 19.15 66.1656 17.675 66.1656 15V2.85H68.5656V5.75H72.3656V7.725H68.5656V14.9C68.5656 16.325 69.2906 17.125 70.6406 17.125C71.3406 17.125 72.0156 16.9 72.5156 16.5ZM85.8145 5.75H88.2145V19H85.9145V16.9C84.8395 18.4 83.1395 19.15 81.1895 19.15C77.3145 19.15 74.4895 16.425 74.4895 12.375C74.4895 8.325 77.3145 5.625 81.1895 5.625C83.0645 5.625 84.7145 6.325 85.8145 7.75V5.75ZM81.3895 17.05C83.9145 17.05 85.8395 15.2 85.8395 12.375C85.8395 9.55 83.9145 7.725 81.3895 7.725C78.8395 7.725 76.9145 9.55 76.9145 12.375C76.9145 15.2 78.8395 17.05 81.3895 17.05ZM99.8305 5.625C103.055 5.625 105.33 7.475 105.33 11.375V19H102.93V11.65C102.93 9.05 101.63 7.775 99.3555 7.775C96.8055 7.775 95.1555 9.3 95.1555 12.175V19H92.7555V5.75H95.0555V7.75C96.0305 6.4 97.7305 5.625 99.8305 5.625ZM110.972 3.2C110.047 3.2 109.347 2.525 109.347 1.65C109.347 0.774999 110.047 0.0749993 110.972 0.0749993C111.897 0.0749993 112.597 0.75 112.597 1.6C112.597 2.5 111.922 3.2 110.972 3.2ZM109.772 19V5.75H112.172V19H109.772ZM130.493 5.625C134.368 5.625 137.193 8.325 137.193 12.375C137.193 16.45 134.368 19.15 130.493 19.15C128.618 19.15 126.968 18.425 125.868 17V23.85H123.468V5.75H125.768V7.85C126.843 6.375 128.543 5.625 130.493 5.625ZM130.293 17.05C132.843 17.05 134.768 15.2 134.768 12.375C134.768 9.575 132.843 7.725 130.293 7.725C127.768 7.725 125.843 9.575 125.843 12.375C125.843 15.2 127.768 17.05 130.293 17.05ZM146.184 19.15C142.209 19.15 139.284 16.325 139.284 12.375C139.284 8.425 142.209 5.625 146.184 5.625C150.159 5.625 153.059 8.425 153.059 12.375C153.059 16.325 150.159 19.15 146.184 19.15ZM146.184 17.05C148.734 17.05 150.634 15.2 150.634 12.375C150.634 9.55 148.734 7.725 146.184 7.725C143.634 7.725 141.709 9.55 141.709 12.375C141.709 15.2 143.634 17.05 146.184 17.05ZM158.679 7.975C159.529 6.425 161.179 5.625 163.504 5.625V7.95C163.304 7.925 163.129 7.925 162.954 7.925C160.379 7.925 158.779 9.5 158.779 12.4V19H156.379V5.75H158.679V7.975ZM172.687 16.5L173.437 18.225C172.712 18.85 171.612 19.15 170.537 19.15C167.862 19.15 166.337 17.675 166.337 15V2.85H168.737V5.75H172.537V7.725H168.737V14.9C168.737 16.325 169.462 17.125 170.812 17.125C171.512 17.125 172.187 16.9 172.687 16.5ZM180.825 2.275C179.4 2.275 178.675 3.075 178.675 4.6V5.75H182.55V7.725H178.725V19H176.325V4.575C176.325 2 177.875 0.299999 180.7 0.299999C181.725 0.299999 182.725 0.549999 183.4 1.075L182.675 2.9C182.175 2.525 181.525 2.275 180.825 2.275ZM190.276 19.15C186.301 19.15 183.376 16.325 183.376 12.375C183.376 8.425 186.301 5.625 190.276 5.625C194.251 5.625 197.151 8.425 197.151 12.375C197.151 16.325 194.251 19.15 190.276 19.15ZM190.276 17.05C192.826 17.05 194.726 15.2 194.726 12.375C194.726 9.55 192.826 7.725 190.276 7.725C187.726 7.725 185.801 9.55 185.801 12.375C185.801 15.2 187.726 17.05 190.276 17.05ZM204.495 19.15C201.92 19.15 200.47 17.65 200.47 15.1V0.449999H202.87V14.9C202.87 16.325 203.545 17.125 204.92 17.125C205.37 17.125 205.82 17 206.095 16.875L206.22 18.85C205.67 19.05 205.07 19.15 204.495 19.15ZM209.703 3.2C208.778 3.2 208.078 2.525 208.078 1.65C208.078 0.774999 208.778 0.0749993 209.703 0.0749993C210.628 0.0749993 211.328 0.75 211.328 1.6C211.328 2.5 210.653 3.2 209.703 3.2ZM208.503 19V5.75H210.903V19H208.503ZM221.16 19.15C217.185 19.15 214.26 16.325 214.26 12.375C214.26 8.425 217.185 5.625 221.16 5.625C225.135 5.625 228.035 8.425 228.035 12.375C228.035 16.325 225.135 19.15 221.16 19.15ZM221.16 17.05C223.71 17.05 225.61 15.2 225.61 12.375C225.61 9.55 223.71 7.725 221.16 7.725C218.61 7.725 216.685 9.55 216.685 12.375C216.685 15.2 218.61 17.05 221.16 17.05Z" fill="#32383E"/>
</svg>
