<svg width="233" height="24" viewBox="0 0 233 24" fill="none" xmlns="http://www.w3.org/2000/svg">
<path d="M7.35 5.625C10.575 5.625 12.85 7.475 12.85 11.375V19H10.45V11.65C10.45 9.05 9.15 7.775 6.875 7.775C4.325 7.775 2.675 9.3 2.675 12.175V19H0.275V5.75H2.575V7.75C3.55 6.4 5.25 5.625 7.35 5.625ZM27.7148 5.75H30.1148V19H27.8148V16.9C26.7398 18.4 25.0398 19.15 23.0898 19.15C19.2148 19.15 16.3898 16.425 16.3898 12.375C16.3898 8.325 19.2148 5.625 23.0898 5.625C24.9648 5.625 26.6148 6.325 27.7148 7.75V5.75ZM23.2898 17.05C25.8148 17.05 27.7398 15.2 27.7398 12.375C27.7398 9.55 25.8148 7.725 23.2898 7.725C20.7398 7.725 18.8148 9.55 18.8148 12.375C18.8148 15.2 20.7398 17.05 23.2898 17.05ZM45.0309 19L40.0559 12.825L37.3059 15.375V19H34.9059V0.449999H37.3059V12.35L44.5309 5.75H47.4309L41.8559 11.225L47.9809 19H45.0309ZM60.0996 5.75H62.4996V19H60.1996V16.9C59.1246 18.4 57.4246 19.15 55.4746 19.15C51.5996 19.15 48.7746 16.425 48.7746 12.375C48.7746 8.325 51.5996 5.625 55.4746 5.625C57.3496 5.625 58.9996 6.325 60.0996 7.75V5.75ZM55.6746 17.05C58.1996 17.05 60.1246 15.2 60.1246 12.375C60.1246 9.55 58.1996 7.725 55.6746 7.725C53.1246 7.725 51.1996 9.55 51.1996 12.375C51.1996 15.2 53.1246 17.05 55.6746 17.05ZM73.5156 16.5L74.2656 18.225C73.5406 18.85 72.4406 19.15 71.3656 19.15C68.6906 19.15 67.1656 17.675 67.1656 15V2.85H69.5656V5.75H73.3656V7.725H69.5656V14.9C69.5656 16.325 70.2906 17.125 71.6406 17.125C72.3406 17.125 73.0156 16.9 73.5156 16.5ZM87.0645 5.75H89.4645V19H87.1645V16.9C86.0895 18.4 84.3895 19.15 82.4395 19.15C78.5645 19.15 75.7395 16.425 75.7395 12.375C75.7395 8.325 78.5645 5.625 82.4395 5.625C84.3145 5.625 85.9645 6.325 87.0645 7.75V5.75ZM82.6395 17.05C85.1645 17.05 87.0895 15.2 87.0895 12.375C87.0895 9.55 85.1645 7.725 82.6395 7.725C80.0895 7.725 78.1645 9.55 78.1645 12.375C78.1645 15.2 80.0895 17.05 82.6395 17.05ZM101.33 5.625C104.555 5.625 106.83 7.475 106.83 11.375V19H104.43V11.65C104.43 9.05 103.13 7.775 100.855 7.775C98.3055 7.775 96.6555 9.3 96.6555 12.175V19H94.2555V5.75H96.5555V7.75C97.5305 6.4 99.2305 5.625 101.33 5.625ZM112.722 3.2C111.797 3.2 111.097 2.525 111.097 1.65C111.097 0.774999 111.797 0.0749993 112.722 0.0749993C113.647 0.0749993 114.347 0.75 114.347 1.6C114.347 2.5 113.672 3.2 112.722 3.2ZM111.522 19V5.75H113.922V19H111.522ZM132.743 5.625C136.618 5.625 139.443 8.325 139.443 12.375C139.443 16.45 136.618 19.15 132.743 19.15C130.868 19.15 129.218 18.425 128.118 17V23.85H125.718V5.75H128.018V7.85C129.093 6.375 130.793 5.625 132.743 5.625ZM132.543 17.05C135.093 17.05 137.018 15.2 137.018 12.375C137.018 9.575 135.093 7.725 132.543 7.725C130.018 7.725 128.093 9.575 128.093 12.375C128.093 15.2 130.018 17.05 132.543 17.05ZM148.684 19.15C144.709 19.15 141.784 16.325 141.784 12.375C141.784 8.425 144.709 5.625 148.684 5.625C152.659 5.625 155.559 8.425 155.559 12.375C155.559 16.325 152.659 19.15 148.684 19.15ZM148.684 17.05C151.234 17.05 153.134 15.2 153.134 12.375C153.134 9.55 151.234 7.725 148.684 7.725C146.134 7.725 144.209 9.55 144.209 12.375C144.209 15.2 146.134 17.05 148.684 17.05ZM161.429 7.975C162.279 6.425 163.929 5.625 166.254 5.625V7.95C166.054 7.925 165.879 7.925 165.704 7.925C163.129 7.925 161.529 9.5 161.529 12.4V19H159.129V5.75H161.429V7.975ZM175.687 16.5L176.437 18.225C175.712 18.85 174.612 19.15 173.537 19.15C170.862 19.15 169.337 17.675 169.337 15V2.85H171.737V5.75H175.537V7.725H171.737V14.9C171.737 16.325 172.462 17.125 173.812 17.125C174.512 17.125 175.187 16.9 175.687 16.5ZM184.075 2.275C182.65 2.275 181.925 3.075 181.925 4.6V5.75H185.8V7.725H181.975V19H179.575V4.575C179.575 2 181.125 0.299999 183.95 0.299999C184.975 0.299999 185.975 0.549999 186.65 1.075L185.925 2.9C185.425 2.525 184.775 2.275 184.075 2.275ZM193.776 19.15C189.801 19.15 186.876 16.325 186.876 12.375C186.876 8.425 189.801 5.625 193.776 5.625C197.751 5.625 200.651 8.425 200.651 12.375C200.651 16.325 197.751 19.15 193.776 19.15ZM193.776 17.05C196.326 17.05 198.226 15.2 198.226 12.375C198.226 9.55 196.326 7.725 193.776 7.725C191.226 7.725 189.301 9.55 189.301 12.375C189.301 15.2 191.226 17.05 193.776 17.05ZM208.245 19.15C205.67 19.15 204.22 17.65 204.22 15.1V0.449999H206.62V14.9C206.62 16.325 207.295 17.125 208.67 17.125C209.12 17.125 209.57 17 209.845 16.875L209.97 18.85C209.42 19.05 208.82 19.15 208.245 19.15ZM213.703 3.2C212.778 3.2 212.078 2.525 212.078 1.65C212.078 0.774999 212.778 0.0749993 213.703 0.0749993C214.628 0.0749993 215.328 0.75 215.328 1.6C215.328 2.5 214.653 3.2 213.703 3.2ZM212.503 19V5.75H214.903V19H212.503ZM225.41 19.15C221.435 19.15 218.51 16.325 218.51 12.375C218.51 8.425 221.435 5.625 225.41 5.625C229.385 5.625 232.285 8.425 232.285 12.375C232.285 16.325 229.385 19.15 225.41 19.15ZM225.41 17.05C227.96 17.05 229.86 15.2 229.86 12.375C229.86 9.55 227.96 7.725 225.41 7.725C222.86 7.725 220.935 9.55 220.935 12.375C220.935 15.2 222.86 17.05 225.41 17.05Z" fill="white"/>
</svg>
